Coordinates
version=1
nRows=26
nColumns=24
inDegrees=yes

Units are S.I. units (second, meters, Newtons, ...)
Angles are in degrees.

endheader
time	pelvis_tilt	pelvis_list	pelvis_rotation	pelvis_tx	pelvis_ty	pelvis_tz	hip_flexion_r	hip_adduction_r	hip_rotation_r	knee_angle_r	ankle_angle_r	subtalar_angle_r	mtp_angle_r	hip_flexion_l	hip_adduction_l	hip_rotation_l	knee_angle_l	ankle_angle_l	subtalar_angle_l	mtp_angle_l	lumbar_extension	lumbar_bending	lumbar_rotation
      0.70400000	     -5.31818645	      6.24991602	      8.99975401	     -0.06078696	      0.96049962	      0.24760518	     37.60683837	    -12.35386895	     -8.68771569	     -4.21344060	      7.79784926	     -7.29917593	     -0.97667377	    -16.81936118	      6.16363276	     -0.63334941	     -4.75723818	     11.66823026	     -1.72652508	      0.63901553	     -8.45884733	     -5.72161677	     -4.86675258
      0.70816667	     -5.27066516	      6.20486764	      9.04791131	     -0.05428208	      0.95956088	      0.24805676	     37.53528659	    -12.30375575	     -8.57087204	     -4.91438220	      7.92282187	     -7.11779442	     -1.33244226	    -17.17574231	      5.96324379	     -0.77366485	     -4.89299035	     11.55555307	     -1.39030354	      0.82831027	     -8.44872501	     -5.58253868	     -4.95852606
      0.71233333	     -5.20995271	      6.11709035	      9.13571016	     -0.04771904	      0.95873721	      0.24851643	     37.37596643	    -12.21430207	     -8.45408954	     -5.51629254	      8.02271855	     -7.06055618	     -8.05604254	    -17.53714074	      5.70129885	     -0.84470140	     -5.01798437	     11.29434272	     -1.20659468	      5.25069207	     -8.45286608	     -5.39652979	     -4.93661876
      0.71650000	     -5.22902729	      6.06589102	      9.21848146	     -0.04112066	      0.95778212	      0.24897857	     37.30987312	    -12.16234153	     -8.36043474	     -6.11527850	      8.01835471	     -6.99898964	     -8.03439088	    -17.81498980	      5.49609566	     -0.88038245	     -5.16189610	     11.04147839	     -1.02492327	      5.27581887	     -8.36907186	     -5.26626454	     -4.98997837
      0.72066667	     -5.16126902	      5.96193236	      9.27520037	     -0.03440678	      0.95699809	      0.24948911	     37.11145717	    -12.03392165	     -8.35317456	     -6.63666143	      7.92606518	     -6.91921621	     -7.96332436	    -18.16942608	      5.22207193	     -1.02898078	     -5.32428455	     10.84143965	     -0.74339672	      5.36519991	     -8.34978051	     -5.06332107	     -5.06615352
      0.72483333	     -5.05334623	      5.82995432	      9.37310391	     -0.02770468	      0.95637918	      0.24999842	     36.80679858	    -11.88154759	     -8.36479392	     -7.04167196	      7.68995356	     -7.04367671	     -7.79750847	    -18.53932511	      4.89398800	     -1.13570988	     -5.51346892	     10.56717512	     -0.47347417	      5.57765806	     -8.39696830	     -4.82172006	     -5.09744279
      0.72900000	     -4.98866610	      5.69060479	      9.45191075	     -0.02092734	      0.95572114	      0.25053773	     36.53892814	    -11.70989222	     -8.38679762	     -7.40628402	      7.37524418	     -7.15746526	     -7.55967905	    -18.85563247	      4.57294224	     -1.25823532	     -5.71630778	     10.25902744	     -0.24339369	      5.88120632	     -8.37677521	     -4.58140094	     -5.14647182
      0.73316667	     -4.94120212	      5.57084390	      9.50700571	     -0.01414019	      0.95506584	      0.25110686	     36.29229021	    -11.54201716	     -8.40859503	     -7.73838765	      6.94610831	     -7.29181745	     -4.63846919	    -19.14921066	      4.28721149	     -1.36297751	     -5.92024427	      9.83967807	     -0.17754655	      9.67938055	     -8.34257254	     -4.36876979	     -5.12798942
      0.73733333	     -4.91810622	      5.40158266	      9.57749562	     -0.00729861	      0.95444885	      0.25171188	     36.03374590	    -11.32433944	     -8.44769541	     -7.98657369	      6.40509178	     -7.55241420	     -4.61917332	    -19.37605403	      3.94199732	     -1.51638850	     -6.19331904	      9.48979906	      0.04977254	      9.75872239	     -8.26226933	     -4.11165896	     -5.20843410
      0.74150000	     -4.84863831	      5.21526110	      9.61236754	     -0.00043691	      0.95396543	      0.25237903	     35.71209786	    -11.05776002	     -8.47499394	     -8.16452371	      5.73294558	     -7.88943155	     -4.54939011	    -19.63994430	      3.58339973	     -1.68985902	     -6.47287388	      9.07591759	      0.20852338	      9.89661385	     -8.23423579	     -3.82649968	     -5.19953612
      0.74566667	     -4.76973875	      5.00080901	      9.62484286	      0.00646496	      0.95356047	      0.25309540	     35.37075791	    -10.74448813	     -8.50285369	     -8.28611359	      4.92732327	     -8.30313640	     -4.41834064	    -19.89007964	      3.20001396	     -1.90412713	     -6.78389767	      8.62814233	      0.37312434	     10.11064137	     -8.21053265	     -3.51340756	     -5.18659785
      0.74983333	     -4.80437664	      4.79231682	      9.65511178	      0.01338580	      0.95305851	      0.25370673	     35.16124358	    -10.46818724	     -8.56790277	     -8.40903778	      4.05034817	     -8.70808101	     -4.34088121	    -19.99965249	      2.85433935	     -2.02480346	     -7.13408373	      8.11074417	      0.32838631	     10.23575118	     -8.03905963	     -3.21366069	     -5.15396675
      0.75400000	     -4.58696915	      4.47510798	      9.55753761	      0.02038347	      0.95298597	      0.25469997	     34.65072628	     -9.95669649	     -8.53282358	     -8.38264651	      2.95877719	     -9.34302361	     -3.98740656	    -20.34287463	      2.35831892	     -2.48157032	     -7.50385012	      7.59751746	      0.66490452	     10.75154229	     -8.16138177	     -2.77275771	     -5.03382576
      0.75816667	     -4.49191758	      4.20189519	      9.47704142	      0.02732648	      0.95280528	      0.25562118	     34.30176665	     -9.51672491	     -8.48565964	     -8.39146588	      1.76703999	    -10.05408189	     -3.55156618	    -20.53345030	      1.94120797	     -2.81112700	     -7.92570074	      7.01778059	      0.77671585	     11.39593985	     -8.14675766	     -2.39923415	     -4.94408330
      0.76233333	     -4.43266604	      3.98147877	      9.40581174	      0.03413032	      0.95266979	      0.25651299	     34.01977528	     -9.14129722	     -8.41634618	     -8.42649293	      0.44828561	    -10.82400625	     -3.23113011	    -20.64624585	      1.59279091	     -3.03726376	     -8.42403209	      6.44587808	      0.74977285	     11.89096558	     -8.12533819	     -2.09793125	     -4.87032111
      0.76650000	     -4.33720353	      3.66017268	      9.25348521	      0.04111573	      0.95262724	      0.25753974	     33.70472464	     -8.61926375	     -8.33538296	     -8.43642088	     -0.90911099	    -11.63256842	     -2.80782491	    -20.78406479	      1.15374968	     -3.44266819	     -8.93037428	      5.78986052	      0.81117763	     12.55484654	     -8.10600501	     -1.67604817	     -4.67175485
      0.77066667	     -4.28998387	      3.39526709	      9.11611251	      0.04797865	      0.95261595	      0.25850471	     33.47409321	     -8.17639325	     -8.24104709	     -8.49990641	     -2.31014398	    -12.43036350	     -2.47380434	    -20.82968931	      0.78938784	     -3.73969004	     -9.51859370	      5.11449622	      0.71291952	     13.11294001	     -8.05017197	     -1.32632568	     -4.51108965
      0.77483333	     -4.18469339	      3.01185375	      8.83318884	      0.05506668	      0.95268936	      0.25977245	     33.19651038	     -7.52359302	     -8.04272771	     -8.54801025	     -3.66019201	    -13.24675059	     -1.91279859	    -20.92899240	      0.32278008	     -4.34075809	    -10.11642264	      4.34284083	      0.78889692	     14.08720679	     -8.01973372	     -0.84353723	     -4.19753469
      0.77900000	     -4.18120866	      2.78384245	      8.58171379	      0.06189406	      0.95271340	      0.26087458	     33.10548452	     -7.08027884	     -7.85338488	     -8.74989512	     -5.04835718	    -13.99977581	      1.91164252	    -20.88681365	      0.05387452	     -4.67928276	    -10.78139523	      3.49127636	      0.41238280	     21.49008922	     -7.93793169	     -0.55869621	     -3.77543042
      0.78316667	     -4.12925028	      2.46844643	      8.41732100	      0.06872507	      0.95297935	      0.26183595	     32.92183791	     -6.59672461	     -7.76379550	     -8.91643977	     -6.41121565	    -14.77840205	      1.88663999	    -20.81357280	     -0.35084568	     -5.00680164	    -11.58228917	      2.73985691	      0.28398377	     21.58455250	     -7.89912245	     -0.13661458	     -3.77918696
      0.78733333	     -4.05197016	      2.14619166	      8.11102518	      0.07561737	      0.95327473	      0.26304405	     32.77014865	     -6.03006692	     -7.55417083	     -9.16927942	     -7.67153332	    -15.51203159	      1.87859084	    -20.77343268	     -0.72080656	     -5.47854081	    -12.38605525	      1.89416021	      0.09515034	     21.75178576	     -7.88699725	      0.27442592	     -3.46740821
      0.79150000	     -3.99879063	      1.84131172	      7.81272614	      0.08244200	      0.95363281	      0.26423903	     32.65454551	     -5.49431727	     -7.31425360	     -9.46255332	     -8.82942334	    -16.15749435	      1.87503945	    -20.65299368	     -1.07050528	     -5.90617912	    -13.29153536	      1.01843577	     -0.18045358	     21.93617877	     -7.86280850	      0.65585840	     -3.17890294
      0.79566667	     -3.93216118	      1.50642636	      7.41159714	      0.08935091	      0.95399929	      0.26560954	     32.57598583	     -4.88116845	     -7.03851736	     -9.85863473	     -9.86562241	    -16.75992567	      1.87329351	    -20.53941719	     -1.42994147	     -6.48956814	    -14.23013756	      0.11603436	     -0.37159143	     22.24438315	     -7.84603287	      1.07046972	     -2.80200967
      0.79983333	     -3.87931134	      1.20949972	      7.06524161	      0.09612744	      0.95447785	      0.26686780	     32.50521858	     -4.34557325	     -6.77152892	    -10.27743059	    -10.80041194	    -17.25183123	      1.86295249	    -20.34281507	     -1.76054734	     -6.94668860	    -15.28300205	     -0.81467933	     -0.70653210	     22.54471003	     -7.83764081	      1.43677086	     -2.48418763
      0.80400000	     -3.83423557	      0.89533685	      6.67267034	      0.10293032	      0.95497203	      0.26823581	     32.45739139	     -3.77183832	     -6.46541158	    -10.74398591	    -11.58079018	    -17.66616731	      1.84147826	    -20.10626648	     -2.10468398	     -7.46977742	    -16.40449056	     -1.77750847	     -1.03632157	     22.91159380	     -7.81841264	      1.81201118	     -2.12543313
      0.80816667	     -3.79034396	      0.59620364	      6.34399049	      0.10966961	      0.95556456	      0.26937329	     32.41915739	     -3.27314500	     -6.28152952	    -11.28452306	    -12.17040662	    -17.93159734	      1.82074593	    -19.81353794	     -2.43802765	     -7.85994637	    -17.61312318	     -2.73089884	     -1.57116224	     23.11207630	     -7.80399742	      2.20033950	     -1.89069670
